<svg xmlns="http://www.w3.org/2000/svg" viewBox="0 0 32 32" fill="none">
  <defs>
    <linearGradient id="bg" x1="0%" y1="0%" x2="100%" y2="100%">
      <stop offset="0%" stop-color="#3b82f6"/>
      <stop offset="100%" stop-color="#4f46e5"/>
    </linearGradient>
  </defs>
  <!-- Rounded hexagon background -->
  <path d="M14.27 2.33a3.5 3.5 0 0 1 3.46 0l8.66 5a3.5 3.5 0 0 1 1.73 3.02v10a3.5 3.5 0 0 1-1.73 3.02l-8.66 5a3.5 3.5 0 0 1-3.46 0l-8.66-5A3.5 3.5 0 0 1 3.88 20.35v-10a3.5 3.5 0 0 1 1.73-3.02l8.66-5Z" fill="url(#bg)"/>
  <!-- Pen nib / quill icon in white -->
  <path d="M16 8.5c-.4 0-.75.15-1.02.42l-5.06 5.56a1.5 1.5 0 0 0-.42.88l-.4 3.5a.75.75 0 0 0 .84.84l3.5-.4c.33-.04.64-.18.88-.42l5.06-5.56a1.45 1.45 0 0 0 0-2.04l-2.36-2.36A1.44 1.44 0 0 0 16 8.5Zm-4.5 12h9" stroke="white" stroke-width="1.5" stroke-linecap="round" stroke-linejoin="round" fill="none"/>
</svg>
